<svg width="61" height="61" viewBox="0 0 61 61" fill="none" xmlns="http://www.w3.org/2000/svg">
<rect width="61" height="61" rx="30.5" fill="#2B2464"/>
<path d="M22.7344 39.8516C22.5781 41.4141 21.7188 42.2604 20.1562 42.3906C19.4271 42.3906 18.7891 42.1562 18.2422 41.6875C17.7214 41.1927 17.4609 40.5807 17.4609 39.8516V21.4141C17.487 20.6849 17.7604 20.0859 18.2812 19.6172C18.8021 19.1224 19.4271 18.875 20.1562 18.875H36.5625C38.8542 18.9531 40.5859 19.4609 41.7578 20.3984C42.9297 21.3099 43.776 22.3516 44.2969 23.5234C44.8177 24.6953 45.0781 25.8802 45.0781 27.0781C45.0781 28.3281 44.8177 29.5391 44.2969 30.7109C43.8021 31.8828 42.9557 32.9375 41.7578 33.875C40.5859 34.7865 39.0885 35.2292 37.2656 35.2031H27.4219C26.6927 35.2031 26.0807 34.9427 25.5859 34.4219C25.0651 33.9271 24.8047 33.3151 24.8047 32.5859C24.8047 31.8568 25.0521 31.2448 25.5469 30.75C26.0677 30.2292 26.6927 29.9688 27.4219 29.9688H37.5C37.9948 29.9688 38.3984 29.8125 38.7109 29.5C39.0495 29.1615 39.2969 28.7839 39.4531 28.3672C39.6094 27.9245 39.6875 27.4818 39.6875 27.0391C39.6875 26.6224 39.6094 26.2057 39.4531 25.7891C39.2969 25.3464 39.0495 24.9688 38.7109 24.6562C38.3984 24.3177 37.9948 24.1354 37.5 24.1094H23.75C23.0729 24.1354 22.7344 24.474 22.7344 25.125V39.8516Z" fill="white"/>
</svg>
